<?xml version="1.0" standalone="no"?>
<!DOCTYPE svg PUBLIC "-//W3C//DTD SVG 20010904//EN"
 "http://www.w3.org/TR/2001/REC-SVG-20010904/DTD/svg10.dtd">
<svg version="1.0" xmlns="http://www.w3.org/2000/svg"
 width="256.000000pt" height="209.000000pt" viewBox="0 0 256.000000 209.000000"
 preserveAspectRatio="xMidYMid meet">

<g transform="translate(0.000000,209.000000) scale(0.100000,-0.100000)"
fill="#000000" stroke="none">
<path d="M945 2043 c-131 -16 -285 -68 -390 -131 -243 -145 -408 -364 -483
-640 l-26 -97 -4 -517 c-3 -456 -1 -521 13 -551 33 -71 129 -90 187 -38 l33
29 6 519 c7 560 7 568 65 705 157 372 559 564 940 447 204 -62 378 -212 469
-404 31 -67 69 -185 61 -193 -3 -2 -103 -34 -224 -71 -121 -37 -232 -75 -247
-85 -84 -55 -95 -184 -22 -262 27 -29 64 -46 227 -104 107 -39 214 -77 238
-86 l42 -16 0 -199 c0 -218 6 -249 55 -287 51 -41 140 -21 170 38 12 22 15 66
15 195 0 91 2 165 4 165 3 0 74 -25 158 -55 165 -59 184 -63 228 -40 42 22 60
53 60 107 0 89 -1 89 -468 250 -227 77 -409 144 -405 148 4 4 184 58 398 120
215 62 402 119 417 126 40 21 58 53 58 106 0 38 -6 54 -27 78 -46 51 -82 50
-273 -9 -90 -27 -165 -49 -166 -48 0 1 -13 42 -29 92 -113 369 -430 642 -815
700 -89 14 -195 17 -265 8z"/>
<path d="M989 1421 c-67 -67 -16 -181 81 -181 44 0 100 56 100 100 0 66 -43
109 -108 110 -35 0 -49 -6 -73 -29z"/>
</g>
</svg>
